HIERARCHY
ROOT Hips
{
 OFFSET 0.000000 0.000000 0.000000
 CHANNELS 6 Xposition Yposition Zposition Yrotation Xrotation Zrotation
 JOINT Chest
 {
  OFFSET 0.000000 10.678932 0.006280
  CHANNELS 3 Yrotation Xrotation Zrotation
  JOINT Chest2
  {
   OFFSET 0.000000 10.491159 -0.011408
   CHANNELS 3 Yrotation Xrotation Zrotation
   JOINT Chest3
   {
    OFFSET 0.000000 9.479342 0.000000
    CHANNELS 3 Yrotation Xrotation Zrotation
    JOINT Chest4
    {
     OFFSET 0.000000 9.479342 0.000000
     CHANNELS 3 Yrotation Xrotation Zrotation
     JOINT Neck
     {
      OFFSET 0.000000 13.535332 0.000000
      CHANNELS 3 Yrotation Xrotation Zrotation
      JOINT Head
      {
       OFFSET 0.000000 8.819083 -0.027129
       CHANNELS 3 Yrotation Xrotation Zrotation
       End Site
       {
        OFFSET 0.000000 16.966594 -0.014170
       }
      }
     }
     JOINT RightCollar
     {
      OFFSET -3.012546 7.545150 0.000000
      CHANNELS 3 Yrotation Xrotation Zrotation
      JOINT RightShoulder
      {
       OFFSET -13.683099 0.000000 0.000000
       CHANNELS 3 Yrotation Xrotation Zrotation
       JOINT RightElbow
       {
        OFFSET -26.359998 0.000000 0.000000
        CHANNELS 3 Yrotation Xrotation Zrotation
        JOINT RightWrist
        {
         OFFSET -21.746691 0.000000 0.008601
         CHANNELS 3 Yrotation Xrotation Zrotation
         End Site
         {
          OFFSET -16.348058 0.000000 0.000000
         }
        }
       }
      }
     }
     JOINT LeftCollar
     {
      OFFSET 3.012546 7.545150 0.000000
      CHANNELS 3 Yrotation Xrotation Zrotation
      JOINT LeftShoulder
      {
       OFFSET 13.683099 0.000000 0.000000
       CHANNELS 3 Yrotation Xrotation Zrotation
       JOINT LeftElbow
       {
        OFFSET 26.359998 0.000000 0.000000
        CHANNELS 3 Yrotation Xrotation Zrotation
        JOINT LeftWrist
        {
         OFFSET 21.746691 0.000000 0.008601
         CHANNELS 3 Yrotation Xrotation Zrotation
         End Site
         {
          OFFSET 16.348058 0.000000 0.000000
         }
        }
       }
      }
     }
    }
   }
  }
 }
 JOINT RightHip
 {
  OFFSET -8.622479 -0.030774 -0.003140
  CHANNELS 3 Yrotation Xrotation Zrotation
  JOINT RightKnee
  {
   OFFSET 0.000000 -37.209160 -0.002630
   CHANNELS 3 Yrotation Xrotation Zrotation
   JOINT RightAnkle
   {
    OFFSET 0.000000 -37.343279 -0.058479
    CHANNELS 3 Yrotation Xrotation Zrotation
    JOINT RightToe
    {
     OFFSET 0.000000 -8.903465 15.088070
     CHANNELS 3 Yrotation Xrotation Zrotation
     End Site
     {
      OFFSET 0.000000 -1.471739 6.884388
     }
    }
   }
  }
 }
 JOINT LeftHip
 {
  OFFSET 8.622479 -0.030774 -0.003140
  CHANNELS 3 Yrotation Xrotation Zrotation
  JOINT LeftKnee
  {
   OFFSET 0.000000 -37.209160 -0.002630
   CHANNELS 3 Yrotation Xrotation Zrotation
   JOINT LeftAnkle
   {
    OFFSET 0.000000 -37.343279 -0.058479
    CHANNELS 3 Yrotation Xrotation Zrotation
    JOINT LeftToe
    {
     OFFSET 0.000000 -8.903465 15.088070
     CHANNELS 3 Yrotation Xrotation Zrotation
     End Site
     {
      OFFSET 0.000000 -1.471739 6.884388
     }
    }
   }
  }
 }
}
MOTION
Frames: 15
Frame Time: 0.150000
-2.290190 83.315683 -16.811400 0.000000 -5.826342 0.000000 0.000000 11.116423 0.000000 0.000000 -5.290081 0.000000 0.000000 0.000000 0.000000 0.000000 0.000000 0.000000 0.000000 12.665069 0.000000 0.000000 0.575450 0.000000 0.000000 0.000000 0.000000 0.000000 0.000000 0.000000 2.337306 0.000000 0.000000 -2.337306 0.000000 0.000000 0.000000 0.000000 0.000000 0.000000 0.000000 0.000000 -2.337306 0.000000 0.000000 2.337306 0.000000 0.000000 0.000000 8.578828 0.000000 0.000000 1.905768 0.000000 0.000000 -4.658254 0.000000 0.000000 0.000000 0.000000 0.000000 8.578828 0.000000 0.000000 1.905768 0.000000 0.000000 -4.658254 0.000000 0.000000 0.000000 0.000000
72.866199 81.875198 -239.897410 -19.115272 -9.040289 -1.454385 -2.344745 4.645137 0.203425 -0.092403 0.177684 0.020404 -0.151365 0.291142 0.033282 -2.231147 4.325161 0.415251 -2.033509 15.664129 0.154447 -3.850721 -7.064157 1.038127 1.052122 -2.750417 -1.827531 13.739642 28.769710 56.055880 104.825512 17.349716 54.552988 30.681934 5.661781 -12.846703 -2.113893 -2.781074 4.958647 -31.661717 24.768053 -68.106702 -99.007977 27.344488 -56.563572 -30.008513 11.485910 47.354366 -7.530566 11.123342 -16.525207 -3.054096 -0.344339 -0.371028 7.773320 -2.796504 16.692773 0.133843 -0.385017 0.064060 -0.464171 19.777128 14.691716 17.400289 -3.818060 0.350312 -1.300943 -4.133745 -16.277762 0.063064 0.257251 0.017309
72.860879 81.859234 -239.865169 -19.515602 -8.894722 -1.318559 -2.419278 4.548707 0.214249 -0.093970 0.171840 0.019242 -0.154039 0.281756 0.031400 -2.298215 4.233985 0.391972 -2.007378 15.626570 0.059156 -3.767732 -7.137787 0.851962 1.000182 -2.658668 -1.932711 13.697245 28.652749 56.044582 104.559305 17.366587 54.637363 31.091321 5.715841 -13.149643 -2.157310 -2.752586 4.801105 -31.510450 24.868304 -68.041344 -99.040682 27.373531 -56.579196 -30.064466 11.541305 47.492984 -7.537423 10.802721 -16.690764 -2.805353 -0.243955 -0.337402 7.867815 -2.897574 16.711892 0.114903 -0.337617 0.073312 -0.239455 19.726418 14.553485 17.442531 -3.784775 0.365430 -1.180523 -4.186281 -16.275665 0.059435 0.248860 0.036085
72.873418 81.854875 -239.869014 -19.741970 -8.876454 -1.211788 -2.451109 4.611738 0.298919 -0.097418 0.177496 0.023114 -0.159520 0.290731 0.037699 -2.335564 4.293980 0.474297 -1.991999 15.633199 -0.055914 -3.696392 -7.129531 0.631428 1.268906 -2.533569 -2.046059 14.018606 28.468444 56.094159 104.965609 18.672183 55.151736 33.201561 6.811760 -16.159939 -1.786382 -2.753938 4.527855 -31.205235 24.774097 -68.191925 -99.139019 27.655113 -56.502136 -30.164109 11.663331 47.508882 -7.464692 10.615685 -16.790915 -2.660960 -0.072704 -0.351806 7.905720 -2.927143 16.676283 0.110227 -0.351079 0.072029 0.152978 19.757756 14.520370 17.351579 -3.878111 0.340192 -1.228019 -4.224745 -16.267569 0.055176 0.250242 0.027079
72.848343 81.858410 -239.975236 -19.825472 -9.092000 -1.375158 -2.285712 4.751494 0.344960 -0.092390 0.184153 0.025339 -0.151194 0.301468 0.041324 -2.189899 4.411228 0.525158 -1.945356 15.806575 -0.052554 -3.606929 -6.808654 0.615453 1.063567 -2.498769 -2.150672 13.886676 28.513868 56.217332 104.987908 18.794859 55.124309 33.196907 6.818173 -16.149069 -1.938034 -2.739024 4.430738 -31.162943 24.813471 -68.077295 -99.170610 27.667901 -56.469468 -30.149354 11.647185 47.588771 -7.302017 10.765937 -16.600511 -2.607655 -0.016681 -0.323195 7.886473 -2.908924 16.622883 0.112019 -0.350733 0.059750 0.182840 19.973583 14.679998 17.490412 -3.873920 0.397755 -1.221234 -4.259364 -16.295327 0.072461 0.288210 0.027083
72.759260 81.852481 -240.102929 -19.777197 -9.040356 -1.373376 -2.234808 4.860699 0.323702 -0.091097 0.190427 0.022464 -0.148981 0.311524 0.036590 -2.135441 4.505231 0.450359 -1.668363 16.022975 -0.087346 -3.074137 -6.413801 0.443886 1.105146 -2.553936 -2.019538 14.054257 28.280610 56.554324 105.614597 20.207420 55.680834 34.681573 7.964804 -18.983456 -1.837134 -2.811273 4.275237 -30.659887 24.551656 -68.107479 -99.437052 28.341643 -56.648474 -30.368581 11.786707 47.704993 -7.400619 10.623383 -16.536521 -2.530071 0.052205 -0.308800 7.903987 -2.979412 16.575563 0.077744 -0.270471 0.037716 0.576594 19.799764 14.966115 17.269978 -3.891893 0.279506 -1.369945 -4.117259 -16.334884 0.059739 0.219612 0.041367
72.715876 81.858826 -240.225573 -19.749276 -9.158235 -1.397782 -2.055464 4.960707 0.179548 -0.083843 0.194803 0.017145 -0.137113 0.318655 0.027896 -1.965988 4.600297 0.329013 -1.248640 16.390173 0.025883 -2.328798 -5.736829 0.495186 0.995415 -2.671003 -1.772171 13.884276 28.231398 56.632950 105.998892 20.507252 55.868974 34.583871 8.110694 -18.834531 -2.177922 -2.690945 4.433491 -30.340650 24.464752 -67.900409 -99.777404 28.397134 -56.595757 -30.252248 11.712589 47.482384 -7.422366 10.650119 -16.485405 -2.488698 0.086992 -0.307606 7.909023 -2.895284 16.599627 0.074275 -0.270877 0.026263 0.589271 19.839916 15.097539 17.297595 -3.808287 0.240738 -1.385353 -4.131226 -16.391010 0.063952 0.234861 0.039401
72.732556 81.870618 -240.351358 -19.539983 -9.253511 -1.408291 -1.879408 5.062674 -0.026996 -0.076257 0.199150 0.008919 -0.124707 0.325728 0.014450 -1.791198 4.691648 0.139882 -1.532811 16.415609 0.080038 -2.875594 -5.683235 0.696829 0.807417 -2.730267 -1.452927 13.623157 28.174379 56.659679 105.508131 20.131842 55.705595 33.896586 7.663967 -17.384479 -2.531168 -2.585514 4.731780 -30.162352 24.358955 -67.591669 -99.993904 28.211305 -56.583336 -30.204889 11.654578 47.329343 -7.421678 10.757857 -16.446879 -2.559007 0.063754 -0.340680 7.829957 -2.850038 16.588968 0.077251 -0.262085 0.051880 0.414426 19.835713 15.133948 17.321467 -3.773069 0.206959 -1.442888 -4.093983 -16.422558 0.064017 0.241092 0.046429
72.713217 81.880666 -240.431363 -19.372343 -9.249899 -1.383796 -1.787813 5.177517 -0.209682 -0.072599 0.206590 0.001429 -0.118644 0.337625 0.002200 -1.688575 4.797797 -0.034493 -1.578361 16.173181 0.125778 -2.981161 -6.131230 0.804107 0.760947 -2.780174 -1.199343 13.367551 28.192227 56.851334 105.354561 20.225853 55.620865 33.790325 7.661913 -16.977974 -2.579092 -2.559069 4.964246 -29.919547 24.271589 -67.402746 -100.305393 28.115494 -56.470573 -29.927439 11.520034 46.899419 -7.524653 10.781005 -16.443114 -2.774539 0.010964 -0.374046 7.914892 -2.778089 16.588512 0.083333 -0.267459 0.055969 0.274636 19.776251 15.164631 17.344204 -3.744006 0.132400 -1.477375 -4.055883 -16.413190 0.051530 0.211859 0.027549
72.678304 81.883190 -240.441146 -18.890782 -9.243380 -1.423701 -1.817793 5.424523 -0.239804 -0.077168 0.226498 0.000902 -0.125759 0.369122 0.001314 -1.712118 5.014930 -0.051608 -1.577444 15.797777 0.063591 -2.963932 -6.829914 0.697352 0.585626 -2.979454 -1.002187 12.229226 28.552089 56.938646 106.094331 20.379451 54.984221 33.201914 7.588433 -15.989554 -2.854081 -2.974877 4.797382 -30.163349 24.326355 -67.580021 -99.840575 28.321107 -56.300653 -29.626550 11.526011 47.154639 -7.701536 10.935667 -16.382929 -3.080763 0.025679 -0.431165 7.892345 -2.813121 16.577961 0.092041 -0.295348 0.054311 0.286445 19.664578 15.327400 17.221319 -3.806832 0.073366 -1.759686 -4.014420 -16.434060 0.045882 0.211217 0.034278
72.667749 81.878325 -240.447231 -18.685972 -9.080471 -1.330840 -1.898944 5.451884 -0.266055 -0.081067 0.229489 -0.000876 -0.132044 0.373790 -0.001593 -1.783935 5.034202 -0.094089 -1.620481 15.810292 0.136345 -3.070588 -6.803805 0.848395 0.591406 -2.940498 -0.934972 11.752294 28.489072 57.053980 106.263011 20.496872 54.904763 33.128702 7.472691 -15.943270 -2.837291 -2.870116 4.864708 -30.167446 24.244474 -67.557810 -99.933109 28.413651 -56.291857 -29.532555 11.531616 47.137806 -7.873078 10.866636 -16.477897 -3.094788 -0.053464 -0.441267 7.856623 -2.868426 16.589388 0.082998 -0.249064 0.054271 0.166956 19.487991 15.273098 17.187777 -3.824345 0.002369 -1.811184 -3.973033 -16.419552 0.044356 0.188420 0.029693
72.738407 81.868175 -240.313109 -18.790190 -8.510406 -1.151219 -1.930803 5.194128 -0.304033 -0.078710 0.210101 -0.002652 -0.128541 0.343099 -0.004480 -1.810834 4.814472 -0.133651 -1.799609 16.034757 0.143417 -3.402053 -6.382602 0.920696 0.422795 -2.926365 -0.880361 11.756012 28.296428 57.145022 105.890384 20.219422 54.885216 32.877651 7.197714 -15.323104 -2.933321 -2.735019 5.046737 -30.188159 24.215720 -67.534286 -99.929929 28.349551 -56.153810 -29.530262 11.426705 46.917609 -8.117942 10.328081 -16.724456 -2.915658 -0.180496 -0.415216 7.900914 -2.825935 16.626134 0.087160 -0.264077 0.063942 0.134877 19.139870 14.990221 17.314906 -4.000293 -0.061815 -1.785085 -3.966844 -16.357007 0.033826 0.166927 0.031374
72.861530 81.853746 -240.113002 -19.042666 -8.027803 -0.835575 -1.987231 4.938078 -0.298395 -0.077073 0.191721 -0.003484 -0.126187 0.313876 -0.005839 -1.853518 4.591111 -0.154738 -1.833156 16.198756 0.039374 -3.423304 -6.080414 0.734640 0.530122 -2.886642 -0.967512 11.958644 28.121908 57.125805 105.594680 20.047831 54.974094 32.734931 7.052123 -14.768673 -2.799817 -2.639418 5.036628 -30.286877 24.239778 -67.506728 -99.960760 28.273207 -56.039327 -29.542234 11.323583 46.666639 -8.494091 9.740997 -17.216599 -2.558137 -0.195438 -0.335364 8.026462 -2.848759 16.667625 0.065412 -0.216179 0.056141 -0.109183 18.805040 14.516359 17.595986 -3.813586 -0.181421 -1.686774 -4.007801 -16.209437 0.027984 0.090333 0.028769
72.892294 81.834676 -239.972377 -19.045343 -7.760270 -0.725534 -2.042076 4.769992 -0.290808 -0.077438 0.180372 -0.003004 -0.126979 0.295748 -0.005054 -1.913438 4.439817 -0.145205 -1.791095 16.287576 -0.018014 -3.322677 -5.918110 0.610416 0.484478 -2.754210 -0.961572 11.695495 28.096448 57.078738 105.472824 19.895825 54.750687 32.506530 6.842541 -14.237438 -2.746047 -2.392827 4.980150 -30.142104 24.192404 -67.329505 -100.145312 28.216729 -55.974069 -29.602739 11.344613 46.575428 -8.613191 9.553416 -17.375325 -2.461631 -0.216511 -0.340895 8.024991 -2.936024 16.690137 0.066128 -0.200603 0.046909 -0.166875 18.618347 14.379798 17.609483 -3.728278 -0.243834 -1.631009 -4.125533 -16.177324 0.030221 0.145175 0.015252
72.776927 81.832574 -239.919261 -18.939652 -7.687348 -0.997333 -2.002594 4.708432 -0.201490 -0.075961 0.176029 0.001038 -0.124635 0.288830 0.001580 -1.897057 4.389711 -0.043903 -1.762987 16.380510 0.028484 -3.285332 -5.744877 0.684250 0.207910 -2.709974 -1.069825 11.308888 28.179912 57.013503 105.377125 19.659688 54.384815 32.165472 6.564310 -14.086448 -2.942489 -2.441592 4.825051 -30.265457 24.258865 -67.348042 -100.109511 28.339265 -55.961021 -29.679220 11.368961 46.842565 -8.417003 9.707915 -17.000952 -2.557470 -0.223795 -0.345880 7.910820 -3.014932 16.652104 0.085265 -0.246588 0.036644 -0.105436 18.670334 14.675311 17.665458 -3.843363 -0.165004 -1.653670 -4.198319 -16.241893 0.032679 0.180172 0.004326
